<svg xmlns="http://www.w3.org/2000/svg" width="40" height="40" viewBox="0 0 24 24"><path fill="#a8a8a8" d="M12 1.75A10.25 10.25 0 1 0 22.25 12A10.26 10.26 0 0 0 12 1.75m.75 16v.79a.75.75 0 0 1-1.5 0v-.79a3.47 3.47 0 0 1-1.76-.81a3.51 3.51 0 0 1-1.24-2.4a.75.75 0 0 1 1.23-.638a.76.76 0 0 1 .27.508a2 2 0 0 0 .71 1.39a2.09 2.09 0 0 0 1.49.5c1.56 0 2.3-.6 2.3-1.82c0-.81-.71-1.68-2.25-1.68c-3.26 0-3.75-2-3.75-3.15a3.5 3.5 0 0 1 2.42-3.2c.19-.059.383-.102.58-.13v-.78a.75.75 0 0 1 1.5 0v.81a3.61 3.61 0 0 1 3 3.22a.75.75 0 0 1-1.49.15a2.14 2.14 0 0 0-2.22-1.92h-.18a2.5 2.5 0 0 0-.72.1a2 2 0 0 0-1.18 1.03a1.87 1.87 0 0 0-.2.77c0 .82.27 1.62 2.25 1.62c2.46 0 3.75 1.6 3.75 3.18a3.11 3.11 0 0 1-3.05 3.21z"></path></svg>